<svg width="161" height="50" viewBox="0 0 161 50" fill="none" xmlns="http://www.w3.org/2000/svg">
<path d="M5 10H0V45C0 47.75 2.25 50 5 50H40V45H5V10ZM45 0H15C12.25 0 10 2.25 10 5V35C10 37.75 12.25 40 15 40H45C47.75 40 50 37.75 50 35V5C50 2.25 47.75 0 45 0ZM37.5 5V17.5L35 15.625L32.5 17.5V5H37.5ZM45 35H15V5H27.5V27.5L35 21.875L42.5 27.5V5H45V35Z" fill="url(#paint0_linear_48_29)"/>
<path d="M67.48 32.5V18.32H70.24V25.06L76.2 18.3H79.24L73.8 24.6L79.58 32.5H76.46L72.04 26.38L70.24 28.26V32.5H67.48ZM80.1669 28.58V22.02H82.8469V28C82.8469 28.8 82.9935 29.4067 83.2869 29.82C83.5802 30.22 84.0135 30.42 84.5869 30.42C84.9335 30.42 85.2735 30.3533 85.6069 30.22C85.9535 30.0733 86.2669 29.86 86.5469 29.58C86.8402 29.3 87.0869 28.9467 87.2869 28.52V22.02H89.9669V29.5C89.9669 29.78 90.0135 29.98 90.1069 30.1C90.2135 30.22 90.3802 30.2933 90.6069 30.32V32.5C90.3402 32.54 90.1135 32.5667 89.9269 32.58C89.7535 32.6067 89.5935 32.62 89.4469 32.62C88.9669 32.62 88.5735 32.5133 88.2669 32.3C87.9735 32.0733 87.8002 31.7667 87.7469 31.38L87.6869 30.54C87.2202 31.2467 86.6202 31.7867 85.8869 32.16C85.1535 32.52 84.3469 32.7 83.4669 32.7C82.3869 32.7 81.5669 32.3533 81.0069 31.66C80.4469 30.9533 80.1669 29.9267 80.1669 28.58ZM98.8711 31.96C98.6444 32.0533 98.3711 32.16 98.0511 32.28C97.7311 32.4 97.3844 32.4933 97.0111 32.56C96.6511 32.64 96.2844 32.68 95.9111 32.68C95.4178 32.68 94.9644 32.5933 94.5511 32.42C94.1378 32.2467 93.8044 31.9733 93.5511 31.6C93.3111 31.2133 93.1911 30.7133 93.1911 30.1V24.08H91.8111V22.02H93.1911V18.62H95.8711V22.02H98.0711V24.08H95.8711V29.2C95.8844 29.56 95.9844 29.82 96.1711 29.98C96.3578 30.14 96.5911 30.22 96.8711 30.22C97.1511 30.22 97.4244 30.1733 97.6911 30.08C97.9578 29.9867 98.1711 29.9067 98.3311 29.84L98.8711 31.96ZM100.167 28.58V22.02H102.847V28C102.847 28.8 102.994 29.4067 103.287 29.82C103.58 30.22 104.014 30.42 104.587 30.42C104.934 30.42 105.274 30.3533 105.607 30.22C105.954 30.0733 106.267 29.86 106.547 29.58C106.84 29.3 107.087 28.9467 107.287 28.52V22.02H109.967V29.5C109.967 29.78 110.014 29.98 110.107 30.1C110.214 30.22 110.38 30.2933 110.607 30.32V32.5C110.34 32.54 110.114 32.5667 109.927 32.58C109.754 32.6067 109.594 32.62 109.447 32.62C108.967 32.62 108.574 32.5133 108.267 32.3C107.974 32.0733 107.8 31.7667 107.747 31.38L107.687 30.54C107.22 31.2467 106.62 31.7867 105.887 32.16C105.154 32.52 104.347 32.7 103.467 32.7C102.387 32.7 101.567 32.3533 101.007 31.66C100.447 30.9533 100.167 29.9267 100.167 28.58ZM124.33 28.84C124.33 29.64 124.123 30.3133 123.71 30.86C123.297 31.3933 122.737 31.8 122.03 32.08C121.337 32.36 120.577 32.5 119.75 32.5H112.89V18.3H120.49C121.157 18.3 121.73 18.48 122.21 18.84C122.703 19.1867 123.077 19.64 123.33 20.2C123.597 20.7467 123.73 21.32 123.73 21.92C123.73 22.6 123.557 23.2467 123.21 23.86C122.863 24.4733 122.357 24.9267 121.69 25.22C122.503 25.46 123.143 25.8933 123.61 26.52C124.09 27.1467 124.33 27.92 124.33 28.84ZM121.55 28.32C121.55 27.96 121.477 27.64 121.33 27.36C121.183 27.0667 120.983 26.84 120.73 26.68C120.49 26.5067 120.21 26.42 119.89 26.42H115.65V30.16H119.75C120.083 30.16 120.383 30.08 120.65 29.92C120.93 29.7467 121.15 29.52 121.31 29.24C121.47 28.96 121.55 28.6533 121.55 28.32ZM115.65 20.66V24.24H119.33C119.637 24.24 119.917 24.1667 120.17 24.02C120.423 23.8733 120.623 23.6667 120.77 23.4C120.93 23.1333 121.01 22.8133 121.01 22.44C121.01 22.08 120.937 21.7667 120.79 21.5C120.657 21.2333 120.47 21.0267 120.23 20.88C120.003 20.7333 119.743 20.66 119.45 20.66H115.65ZM126.085 28.58V22.02H128.765V28C128.765 28.8 128.912 29.4067 129.205 29.82C129.498 30.22 129.932 30.42 130.505 30.42C130.852 30.42 131.192 30.3533 131.525 30.22C131.872 30.0733 132.185 29.86 132.465 29.58C132.758 29.3 133.005 28.9467 133.205 28.52V22.02H135.885V29.5C135.885 29.78 135.932 29.98 136.025 30.1C136.132 30.22 136.298 30.2933 136.525 30.32V32.5C136.258 32.54 136.032 32.5667 135.845 32.58C135.672 32.6067 135.512 32.62 135.365 32.62C134.885 32.62 134.492 32.5133 134.185 32.3C133.892 32.0733 133.718 31.7667 133.665 31.38L133.605 30.54C133.138 31.2467 132.538 31.7867 131.805 32.16C131.072 32.52 130.265 32.7 129.385 32.7C128.305 32.7 127.485 32.3533 126.925 31.66C126.365 30.9533 126.085 29.9267 126.085 28.58ZM145.708 32.5L142.648 27.98L141.228 29.38V32.5H138.548V17.9H141.228V26.74L145.448 22.04H148.288L144.388 26.48L148.568 32.5H145.708ZM149.6 28.58V22.02H152.28V28C152.28 28.8 152.427 29.4067 152.72 29.82C153.014 30.22 153.447 30.42 154.02 30.42C154.367 30.42 154.707 30.3533 155.04 30.22C155.387 30.0733 155.7 29.86 155.98 29.58C156.274 29.3 156.52 28.9467 156.72 28.52V22.02H159.4V29.5C159.4 29.78 159.447 29.98 159.54 30.1C159.647 30.22 159.814 30.2933 160.04 30.32V32.5C159.774 32.54 159.547 32.5667 159.36 32.58C159.187 32.6067 159.027 32.62 158.88 32.62C158.4 32.62 158.007 32.5133 157.7 32.3C157.407 32.0733 157.234 31.7667 157.18 31.38L157.12 30.54C156.654 31.2467 156.054 31.7867 155.32 32.16C154.587 32.52 153.78 32.7 152.9 32.7C151.82 32.7 151 32.3533 150.44 31.66C149.88 30.9533 149.6 29.9267 149.6 28.58Z" fill="url(#paint1_linear_48_29)"/>
<defs>
<linearGradient id="paint0_linear_48_29" x1="25" y1="0" x2="25" y2="50" gradientUnits="userSpaceOnUse">
<stop stop-color="#002277" stop-opacity="0.533333"/>
<stop offset="1" stop-color="#3BEDB7"/>
</linearGradient>
<linearGradient id="paint1_linear_48_29" x1="113.5" y1="13.5" x2="113.5" y2="36.5" gradientUnits="userSpaceOnUse">
<stop stop-color="#002277" stop-opacity="0.533333"/>
<stop offset="1" stop-color="#3BEDB7"/>
</linearGradient>
</defs>
</svg>