<svg width="32" height="32" viewBox="0 0 32 32" fill="none" xmlns="http://www.w3.org/2000/svg">
<path d="M19.4351 18.0629H18.7124L18.4563 17.8159C19.3528 16.773 19.8925 15.4191 19.8925 13.9463C19.8925 10.6621 17.2304 8 13.9463 8C10.6621 8 8 10.6621 8 13.9463C8 17.2304 10.6621 19.8925 13.9463 19.8925C15.4191 19.8925 16.773 19.3528 17.8159 18.4563L18.0629 18.7124V19.4351L22.6369 24L24 22.6369L19.4351 18.0629ZM13.9463 18.0629C11.6684 18.0629 9.82962 16.2241 9.82962 13.9463C9.82962 11.6684 11.6684 9.82962 13.9463 9.82962C16.2241 9.82962 18.0629 11.6684 18.0629 13.9463C18.0629 16.2241 16.2241 18.0629 13.9463 18.0629Z" fill="black"/>
<rect x="0.5" y="0.5" width="31" height="31" rx="15.5" stroke="black"/>
</svg>
